<?xml version="1.0" standalone="no"?>
<!DOCTYPE svg PUBLIC "-//W3C//DTD SVG 1.1//EN" "http://www.w3.org/Graphics/SVG/1.1/DTD/svg11.dtd" >
<svg xmlns="http://www.w3.org/2000/svg">
  <metadata>Created by iconfont</metadata>
  <defs>
  <font id="iconfont" horiz-adv-x="1024">
    <font-face
      font-family="iconfont"
      font-weight="400"
      font-stretch="normal"
      units-per-em="1024"
      ascent="896"
      descent="-128"
    />
      <missing-glyph />
      
      <glyph glyph-name="xiala" unicode="&#59065;" d="M512.726547 220.681354c-8.063653 0-15.790638 3.245927-21.435195 9.006118L231.175103 495.093191c-11.603269 11.837606-11.410887 30.840402 0.427742 42.442648 11.837606 11.601222 30.841426 11.410887 42.442648-0.427742l238.681054-243.534596L751.407602 537.108097c11.601222 11.839653 30.602995 12.033058 42.442648 0.427742 11.839653-11.603269 12.031011-30.605042 0.427742-42.442648L534.161742 229.687472C528.517185 223.927281 520.791224 220.681354 512.726547 220.681354z"  horiz-adv-x="1024" />
      
      <glyph glyph-name="zhuanruzijin" unicode="&#58892;" d="M0 896h1024v-1024H0zM792.896 778.666667a156.437333 156.437333 0 0 0 156.437333-156.437334 32 32 0 0 0-64 0A92.437333 92.437333 0 0 1 792.896 714.666667H231.978667A93.312 93.312 0 0 1 138.666667 621.354667v-496.042667a93.312 93.312 0 0 1 93.312-93.312h560.917333a92.437333 92.437333 0 0 1 92.437333 92.437333 32 32 0 1 0 64 0 156.437333 156.437333 0 0 0-156.437333-156.437333H231.978667A157.312 157.312 0 0 0 74.666667 125.312V621.354667A157.312 157.312 0 0 0 231.978667 778.666667h560.917333zM456.682667 550.378667a32 32 0 1 0 48.256-42.026667l-117.333334-134.656 116.992-129.813333a32 32 0 0 0-0.042666-42.88l-2.304-2.325334a32 32 0 0 0-45.205334 2.346667l-135.936 150.890667a32 32 0 0 0-0.341333 42.453333l135.914667 156.010667zM917.333333 407.893333a32 32 0 0 0 0-64H356.096a32 32 0 0 0 0 64H917.333333z"  horiz-adv-x="1024" />
      
      <glyph glyph-name="kaitongfuwu" unicode="&#58893;" d="M0 896h1024v-1024H0zM512 821.333333c241.536 0 437.333333-195.797333 437.333333-437.333333S753.536-53.333333 512-53.333333a436.096 436.096 0 0 0-242.986667 73.685333 32 32 0 1 0 35.584 53.162667A372.096 372.096 0 0 1 512 10.666667c206.186667 0 373.333333 167.146667 373.333333 373.333333S718.186667 757.333333 512 757.333333 138.666667 590.186667 138.666667 384a372.096 372.096 0 0 1 62.848-207.402667 32 32 0 0 0-53.162667-35.605333A436.096 436.096 0 0 0 74.666667 384C74.666667 625.557333 270.464 821.354667 512 821.354667zM694.314667 476.928a32 32 0 0 0 43.221333-47.210667l-196.736-180.096a117.333333 117.333333 0 0 0-161.344 2.730667l-83.093333 81.429333a32 32 0 1 0 44.8 45.717334l83.093333-81.429334a53.333333 53.333333 0 0 1 73.344-1.237333l196.714667 180.096z"  horiz-adv-x="1024" />
      
      <glyph glyph-name="kuaijiezhifu" unicode="&#58894;" d="M0 896h1024v-1024H0zM862.314667 778.666667H161.706667A108.352 108.352 0 0 1 53.333333 670.314667V76.373333A108.352 108.352 0 0 1 161.685333-32H862.293333a108.352 108.352 0 0 1 108.352 108.352V670.293333A108.352 108.352 0 0 1 862.314667 778.666667z m0-64c24.490667 0 44.352-19.84 44.352-44.352V76.373333c0-24.490667-19.84-44.352-44.352-44.352H161.706667A44.352 44.352 0 0 0 117.333333 76.352V670.293333C117.333333 694.826667 137.173333 714.666667 161.685333 714.666667H862.293333zM938.666667 533.333333v-64H85.333333v64zM619.093333 256l154.026667-2.133333a32 32 0 1 0-0.896-64l-154.005333 2.133333a32 32 0 0 0 0.896 64z"  horiz-adv-x="1024" />
      
      <glyph glyph-name="tianxuangouren" unicode="&#58895;" d="M0 896h1024v-1024H0zM507.690667 789.333333h-12.245334l-5.461333-0.064c-107.050667-3.413333-190.549333-91.733333-190.549333-198.784v-92.949333l0.085333-6.634667 0.384-7.274666c3.498667-50.773333 24.533333-97.536 59.434667-132.650667l40.085333-40.405333 0.597333-0.661334a2.837333 2.837333 0 0 0 0.32-1.322666l-0.042666-5.653334-278.08-134.357333-4.501334-2.304C83.754667 147.264 64 113.066667 64 76.224v-9.450667l0.170667-6.485333C67.029333 14.72 104.533333-21.333333 150.570667-21.333333h701.525333C900.266667-21.333333 938.666667 18.005333 938.666667 65.792v10.432l-0.106667 4.864a101.973333 101.973333 0 0 1-57.258667 87.061333L602.304 302.933333v5.653334c0 0.746667 0.277333 1.386667 0.597333 1.706666l40.448 40.704a207.146667 207.146667 0 0 1 59.882667 145.941334V590.506667c0 109.44-87.189333 198.826667-195.541333 198.826666z m0-64c72.64 0 131.541333-60.373333 131.541333-134.826666v-93.546667a143.146667 143.146667 0 0 0-41.301333-100.864l-40.469334-40.746667a66.410667 66.410667 0 0 1-19.136-46.762666v-5.824c0-24.426667 13.738667-46.656 35.285334-57.045334l279.829333-135.168c12.949333-6.272 21.226667-19.626667 21.226667-34.346666v-10.410667c0-12.8-10.112-23.125333-22.570667-23.125333H150.570667a22.826667 22.826667 0 0 0-22.528 21.632L128 76.224c0 13.866667 7.381333 26.602667 19.221333 33.28l2.837334 1.450667 278.997333 134.762666a63.018667 63.018667 0 0 1 34.986667 50.986667l0.256 4.565333 0.042666 7.317334c0 15.36-5.248 30.165333-14.805333 41.92l-3.264 3.733333-41.536 41.834667a143.018667 143.018667 0 0 0-41.216 95.722666l-0.085333 5.738667V590.506667c0 72.810667 56.426667 132.48 127.424 134.762666L495.445333 725.333333h12.245334zM949.333333 320v-21.333333a21.333333 21.333333 0 0 0-21.333333-21.333334h-85.333333a21.333333 21.333333 0 0 0-21.333334 21.333334v21.333333a21.333333 21.333333 0 0 0 21.333334 21.333333h85.333333a21.333333 21.333333 0 0 0 21.333333-21.333333zM949.333333 437.333333v-21.333333a21.333333 21.333333 0 0 0-21.333333-21.333333h-149.333333a21.333333 21.333333 0 0 0-21.333334 21.333333v21.333333a21.333333 21.333333 0 0 0 21.333334 21.333334h149.333333a21.333333 21.333333 0 0 0 21.333333-21.333334zM949.333333 554.666667v-21.333334a21.333333 21.333333 0 0 0-21.333333-21.333333h-149.333333a21.333333 21.333333 0 0 0-21.333334 21.333333v21.333334a21.333333 21.333333 0 0 0 21.333334 21.333333h149.333333a21.333333 21.333333 0 0 0 21.333333-21.333333z"  horiz-adv-x="1024" />
      
      <glyph glyph-name="tijiaoyanzi" unicode="&#58896;" d="M0 896h1024v-1024H0zM512 821.333333c241.536 0 437.333333-195.797333 437.333333-437.333333S753.536-53.333333 512-53.333333a436.096 436.096 0 0 0-242.986667 73.685333 32 32 0 1 0 35.584 53.162667A372.096 372.096 0 0 1 512 10.666667c206.186667 0 373.333333 167.146667 373.333333 373.333333S718.186667 757.333333 512 757.333333 138.666667 590.186667 138.666667 384a372.096 372.096 0 0 1 62.848-207.402667 32 32 0 0 0-53.162667-35.605333A436.096 436.096 0 0 0 74.666667 384C74.666667 625.557333 270.464 821.354667 512 821.354667zM360.32 576.170667a32 32 0 0 0 45.184 2.197333l95.936-87.104 95.68 87.061333a32 32 0 0 0 42.88 0.192l2.346667-2.304a32 32 0 0 0-2.133334-45.226666l-117.184-106.666667a32 32 0 0 0-43.050666 0l-117.482667 106.666667a32 32 0 0 0-2.197333 45.184zM640 448a32 32 0 0 0 0-64H341.333333a32 32 0 0 0 0 64h298.666667zM640 341.333333a32 32 0 0 0 0-64H341.333333a32 32 0 0 0 0 64h298.666667zM496.426667 480a32 32 0 0 0 32.917333-31.082667l7.957333-277.333333a32 32 0 0 0-63.978666-1.834667l-7.957334 277.333334a32 32 0 0 0 31.061334 32.896z"  horiz-adv-x="1024" />
      
      <glyph glyph-name="zhifudingjin" unicode="&#58897;" d="M0 896h1024v-1024H0zM753.770667 821.333333a162.453333 162.453333 0 0 0 162.453333-162.453333v-553.194667a32 32 0 1 0-64 0V658.88A98.453333 98.453333 0 0 1 753.770667 757.333333H270.229333a98.453333 98.453333 0 0 1-98.453333-98.453333v-553.194667a32 32 0 0 0-64 0V658.88A162.453333 162.453333 0 0 0 270.229333 821.333333h483.541334zM970.794667 171.648a32 32 0 0 0 21.077333-60.416l-466.474667-162.773333a32 32 0 0 0-20.992-0.042667l-472.170666 162.773333a32 32 0 0 0 20.864 60.501334l461.674666-159.146667 456.021334 159.104zM618.773333 652.352a32 32 0 1 0 45.333334-45.184l-152.426667-152.917333-152.768 152.896a32 32 0 0 0 45.269333 45.226666l107.456-107.52 107.136 107.498667zM683.797333 499.584a32 32 0 1 0 0-64h-343.68a32 32 0 1 0 0 64h343.68zM683.797333 369.365333a32 32 0 1 0 0-64h-343.68a32 32 0 1 0 0 64h343.68zM511.253333 542.165333a32 32 0 0 0 32.704-31.274666l7.957334-357.162667a32 32 0 0 0-63.978667-1.429333l-7.978667 357.162666a32 32 0 0 0 31.296 32.704z"  horiz-adv-x="1024" />
      
      <glyph glyph-name="zaixianzixun" unicode="&#58898;" d="M0 896h1024v-1024H0zM538.304 370.218667c-25.898667 0-46.869333 20.394667-46.869333 45.568v60.757333c0 25.173333 20.970667 45.546667 46.869333 45.546667 25.877333 0 46.890667-20.373333 46.890667-45.546667v-60.757333c0-25.173333-21.013333-45.568-46.890667-45.568z m186.581333 0c-25.877333 0-46.890667 20.394667-46.890666 45.568v60.757333c0 25.173333 21.013333 45.546667 46.890666 45.546667s46.890667-20.373333 46.890667-45.546667v-60.757333c0-25.173333-21.013333-45.568-46.890667-45.568z m-202.197333 437.12c-79.274667 0-155.797333-20.608-223.189333-59.541334C261.845333 787.904 207.232 810.666667 145.002667 810.666667c-11.370667 0-21.824-6.037333-27.306667-15.701334a29.76 29.76 0 0 1 0.853333-30.890666c0.362667-0.490667 32.768-51.541333 40.917334-129.898667 1.642667-15.637333 15.232-27.306667 31.082666-27.306667 1.066667 0 2.090667 0.042667 3.2 0.170667 17.152 1.706667 29.674667 16.576 27.946667 33.28-4.266667 40.789333-14.08 75.264-23.936 101.354667 23.914667-7.765333 49.792-22.613333 68.522667-50.688 0.085333-0.149333 0.256-0.213333 0.341333-0.362667 0.085333-0.128 0.085333-0.234667 0.149333-0.362667 1.130667-1.578667 2.730667-2.517333 4.053334-3.84 1.514667-1.450667 2.794667-3.157333 4.544-4.245333 1.792-1.130667 3.818667-1.6 5.76-2.346667 1.770667-0.682667 3.413333-1.664 5.248-2.026666 2.026667-0.384 4.053333-0.128 6.101333-0.128 1.962667 0 3.904-0.298667 5.866667 0.064 1.941333 0.362667 3.669333 1.365333 5.504 2.112 1.92 0.725333 3.882667 1.066667 5.653333 2.133333 0.128 0.106667 0.192 0.256 0.341333 0.341333l0.426667 0.149334A380.352 380.352 0 0 0 522.666667 746.581333c206.656 0 374.805333-163.413333 374.805333-364.266666 0-200.874667-168.149333-364.266667-374.826667-364.266667-206.656 0-374.826667 163.413333-374.826666 364.266667 0 51.413333 10.794667 101.12 32.106666 147.712 6.997333 15.317333-0.085333 33.28-15.872 40.106666-15.765333 6.805333-34.24-0.106667-41.258666-15.445333A412.010667 412.010667 0 0 1 85.333333 382.336C85.333333 147.989333 281.536-42.666667 522.666667-42.666667 763.861333-42.666667 960 147.989333 960 382.336c0 234.346667-196.16 424.981333-437.333333 424.981333z"  horiz-adv-x="1024" />
      
      <glyph glyph-name="kandian-zhihui" unicode="&#58899;" d="M0 896h1024v-1024H0zM900.48 810.666667C921.6 810.666667 938.666667 793.578667 938.666667 772.48v-509.738667C938.666667 94.058667 801.92-42.666667 633.258667-42.666667H123.52A38.186667 38.186667 0 0 0 85.333333-4.48V505.237333C85.333333 673.941333 222.08 810.666667 390.741333 810.666667H900.48zM874.666667 746.666667H390.741333C259.498667 746.666667 152.725333 641.92 149.418667 511.488L149.333333 505.258667V21.333333h483.925334c131.242667 0 238.016 104.746667 241.322666 235.178667l0.085334 6.229333V746.666667z m-362.666667-152.896c115.84 0 209.770667-93.909333 209.770667-209.770667 0-115.84-93.909333-209.770667-209.770667-209.770667-115.84 0-209.770667 93.909333-209.770667 209.770667 0 115.84 93.909333 209.770667 209.770667 209.770667z m0-64a145.770667 145.770667 0 1 1 0-291.541334 145.770667 145.770667 0 0 1 0 291.541334z"  horiz-adv-x="1024" />
      
      <glyph glyph-name="jubao" unicode="&#58900;" d="M0 896h1024v-1024H0zM714.666667 795.114667l137.6-25.024A79.274667 79.274667 0 0 0 917.333333 692.096v-487.978667a79.274667 79.274667 0 0 0-38.293333-67.861333L573.44-48.234667a118.890667 118.890667 0 0 0-122.922667 0L144.96 136.256A79.274667 79.274667 0 0 0 106.666667 204.096V692.117333a79.274667 79.274667 0 0 0 65.066666 77.994667L309.333333 795.093333a1132.117333 1132.117333 0 0 0 405.333334 0z m-11.456-62.954667a1068.117333 1068.117333 0 0 1-382.421334 0l-137.6-25.045333A15.274667 15.274667 0 0 1 170.666667 692.096v-487.978667c0-5.333333 2.794667-10.304 7.381333-13.077333l305.578667-184.490667a54.890667 54.890667 0 0 1 56.746666 0l305.578667 184.490667a15.274667 15.274667 0 0 1 7.381333 13.077333V692.096a15.274667 15.274667 0 0 1-12.522666 15.018667l-137.6 25.045333zM512 618.666667a42.666667 42.666667 0 0 0 42.666667-42.666667v-225.856a42.666667 42.666667 0 1 0-85.333334 0V576a42.666667 42.666667 0 0 0 42.666667 42.666667zM512 256a42.666667 42.666667 0 0 0 42.666667-42.666667v-21.333333a42.666667 42.666667 0 1 0-85.333334 0v21.333333a42.666667 42.666667 0 0 0 42.666667 42.666667z"  horiz-adv-x="1024" />
      
      <glyph glyph-name="fenxiang" unicode="&#58901;" d="M618.666667 608a32 32 0 0 0 0-64H320a32 32 0 0 0 0 64h298.666667zM704 416a32 32 0 0 0 0-64H320a32 32 0 0 0 0 64h384zM533.333333 224a32 32 0 0 0 0-64H320a32 32 0 0 0 0 64h213.333333zM768 810.666667a128 128 0 0 0 128-128v-597.333334a128 128 0 0 0-128-128H256a128 128 0 0 0-128 128V682.666667a128 128 0 0 0 128 128h512z m0-64H256a64 64 0 0 1-64-64v-597.333334a64 64 0 0 1 64-64h512a64 64 0 0 1 64 64V682.666667a64 64 0 0 1-64 64z"  horiz-adv-x="1024" />
      
      <glyph glyph-name="gengduo" unicode="&#58902;" d="M0 896h1024v-1024H0zM256 384m-74.666667 0a74.666667 74.666667 0 1 1 149.333334 0 74.666667 74.666667 0 1 1-149.333334 0ZM512 384m-74.666667 0a74.666667 74.666667 0 1 1 149.333334 0 74.666667 74.666667 0 1 1-149.333334 0ZM768 384m-74.666667 0a74.666667 74.666667 0 1 1 149.333334 0 74.666667 74.666667 0 1 1-149.333334 0Z"  horiz-adv-x="1024" />
      
      <glyph glyph-name="gerenzhongxin-zhihui" unicode="&#58903;" d="M0 896h1024v-1024H0zM512 821.333333c241.536 0 437.333333-195.797333 437.333333-437.333333S753.536-53.333333 512-53.333333 74.666667 142.464 74.666667 384 270.464 821.333333 512 821.333333z m0-64C305.813333 757.333333 138.666667 590.186667 138.666667 384S305.813333 10.666667 512 10.666667 885.333333 177.813333 885.333333 384 718.186667 757.333333 512 757.333333z m138.666667-170.666666a32 32 0 0 0 31.850666-28.928L682.666667 554.666667v-106.666667a32 32 0 0 0-63.850667-3.072L618.666667 448v106.666667a32 32 0 0 0 32 32z m-277.333334 0a32 32 0 0 0 31.850667-28.928L405.333333 554.666667v-106.666667a32 32 0 0 0-63.850666-3.072L341.333333 448v106.666667a32 32 0 0 0 32 32z"  horiz-adv-x="1024" />
      
      <glyph glyph-name="fanhui" unicode="&#58904;" d="M631.04 734.058667a42.666667 42.666667 0 0 0 63.061333-57.386667l-2.474666-2.730667-289.962667-292.245333 289.706667-287.402667a42.666667 42.666667 0 0 0 2.730666-57.6l-2.474666-2.752a42.666667 42.666667 0 0 0-57.6-2.709333l-2.752 2.474667-320 317.44a42.666667 42.666667 0 0 0-2.709334 57.6l2.474667 2.752 320 322.56z"  horiz-adv-x="1024" />
      
      <glyph glyph-name="xihuan" unicode="&#58905;" d="M0 896h1024v-1024H0zM511.914667 741.930667l-0.554667 0.426666c-113.024 85.525333-272.021333 75.52-374.016-27.626666C83.562667 660.181333 53.333333 585.92 53.333333 508.458667c0-77.44 30.229333-151.701333 83.989334-206.229334l294.698666-300.053333a110.72 110.72 0 0 1 79.914667-34.176 110.976 110.976 0 0 1 80.213333 34.474667l294.421334 299.52c53.824 54.485333 84.096 128.810667 84.096 206.336 0 77.525333-30.293333 151.850667-84.138667 206.378666-100.245333 101.397333-255.530667 112.789333-368.128 32l-6.485333-4.778666z m329.088-72.192c41.984-42.496 65.664-100.672 65.664-161.408 0-60.757333-23.68-118.912-65.685334-161.408L546.197333 47.04a47.253333 47.253333 0 0 0-34.261333-15.04 46.976 46.976 0 0 0-33.962667 14.72L182.933333 347.136C140.970667 389.674667 117.333333 447.786667 117.333333 508.458667c0 60.693333 23.637333 118.805333 65.557334 161.301333 84.608 85.568 219.114667 88.618667 307.306666 6.933333l21.738667-20.138666 21.76 20.138666c88.149333 81.685333 222.677333 78.634667 307.306667-6.954666z"  horiz-adv-x="1024" />
      
      <glyph glyph-name="a-fenxiang2" unicode="&#58906;" d="M0 896h1024v-1024H0zM288 522.666667c-82.432 0-149.333333-66.922667-149.333333-149.333334a149.333333 149.333333 0 0 1 149.333333-149.333333c82.496 0 149.333333 66.816 149.333333 149.333333 0 82.410667-66.88 149.333333-149.333333 149.333334z m0-64c47.104 0 85.333333-38.250667 85.333333-85.333334 0-47.146667-38.186667-85.333333-85.333333-85.333333a85.333333 85.333333 0 1 0 0 170.666667zM757.333333 224a128.021333 128.021333 0 1 1 128-128c0 70.656-57.344 128-128 128z m0-64a64.021333 64.021333 0 1 0-64-64c0 35.328 28.672 64 64 64zM757.333333 778.666667a128.021333 128.021333 0 1 1 128-128c0 70.656-57.344 128-128 128z m0-64a64.021333 64.021333 0 1 0-64-64c0 35.328 28.672 64 64 64zM356.565333 315.136a32 32 0 0 0 43.904 10.965333l266.666667-160a32 32 0 0 0-32.938667-54.869333l-266.666666 160a32 32 0 0 0-10.965334 43.904zM643.050667 631.210667a32 32 0 0 0 36.565333-52.522667l-256-178.282667a32 32 0 0 0-36.565333 52.522667l256 178.282667z"  horiz-adv-x="1024" />
      
      <glyph glyph-name="anquanbaozhang" unicode="&#58907;" d="M0 896h1024v-1024H0zM714.666667 795.114667l137.6-25.024A79.274667 79.274667 0 0 0 917.333333 692.096v-487.978667a79.274667 79.274667 0 0 0-38.293333-67.861333L573.44-48.234667a118.890667 118.890667 0 0 0-122.922667 0L144.96 136.256A79.274667 79.274667 0 0 0 106.666667 204.096V692.117333a79.274667 79.274667 0 0 0 65.066666 77.994667L309.333333 795.093333a1132.117333 1132.117333 0 0 0 405.333334 0z m-11.456-62.954667a1068.117333 1068.117333 0 0 1-382.421334 0l-137.6-25.045333A15.274667 15.274667 0 0 1 170.666667 692.096v-487.978667c0-5.333333 2.794667-10.304 7.381333-13.077333l305.578667-184.490667a54.890667 54.890667 0 0 1 56.746666 0l305.578667 184.490667a15.274667 15.274667 0 0 1 7.381333 13.077333V692.096a15.274667 15.274667 0 0 1-12.522666 15.018667l-137.6 25.045333zM707.050667 542.805333a32 32 0 0 0 43.029333-47.36l-207.893333-188.928a122.069333 122.069333 0 0 0-167.210667 2.837334l-87.957333 85.525333a32 32 0 0 0 44.629333 45.866667l87.957333-85.504a58.069333 58.069333 0 0 1 79.530667-1.344l207.914667 188.906666z"  horiz-adv-x="1024" />
      
      <glyph glyph-name="qianshuxieyi" unicode="&#58908;" d="M0 896h1024v-1024H0zM621.653333 800a32 32 0 0 0 0-64H257.578667A97.578667 97.578667 0 0 1 160 638.421333v-508.842666a97.578667 97.578667 0 0 1 97.578667-97.578667h507.264a97.578667 97.578667 0 0 1 97.578666 97.152l1.578667 356.928a32 32 0 0 0 64-0.277333l-1.578667-356.928a161.578667 161.578667 0 0 0-161.578666-160.874667H257.578667A161.578667 161.578667 0 0 0 96 129.578667V638.421333A161.578667 161.578667 0 0 0 257.578667 800H621.653333zM753.258667 782.442667L455.552 486.4a64 64 0 0 1-18.88-45.376v-53.845333a67.242667 67.242667 0 0 1 65.770667-67.242667l50.986666-1.109333a64 64 0 0 1 45.738667 17.813333L902.826667 628.053333a107.946667 107.946667 0 0 1 3.242666 152.490667l-1.450666 1.493333a107.029333 107.029333 0 0 1-151.338667 0.426667z m106.538666-46.144a43.946667 43.946667 0 0 0-1.322666-62.08L554.88 382.805333l-51.008 1.130667a3.242667 3.242667 0 0 0-3.178667 3.242667v53.845333L798.378667 737.066667a43.029333 43.029333 0 0 0 58.112 2.346666l3.306666-3.114666zM772.330667 741.141333l94.677333-95.274666-45.397333-45.098667-94.677334 95.253333z"  horiz-adv-x="1024" />
      
      <glyph glyph-name="a-dingwei2" unicode="&#58909;" d="M0 896h1024v-1024H0zM504.448 376.448m-151.189333 0a151.189333 151.189333 0 1 1 302.378666 0 151.189333 151.189333 0 1 1-302.378666 0ZM504.448 771.285333c-218.069333 0-394.858667-176.768-394.858667-394.837333s176.789333-394.858667 394.858667-394.858667 394.837333 176.789333 394.837333 394.858667S722.517333 771.285333 504.448 771.285333z m0-64c182.72 0 330.837333-148.117333 330.837333-330.837333s-148.117333-330.858667-330.837333-330.858667S173.589333 193.728 173.589333 376.448c0 182.72 148.138667 330.837333 330.858667 330.837333zM519.552 885.333333a32 32 0 0 0 32-32v-98.922666a32 32 0 1 0-64 0V853.333333a32 32 0 0 0 32 32zM519.552 45.589333a32 32 0 0 0 32-32V-85.333333a32 32 0 0 0-64 0v98.922666a32 32 0 0 0 32 32zM10.666667 376.448a32 32 0 0 0 32 32h98.922666a32 32 0 1 0 0-64H42.666667a32 32 0 0 0-32 32zM850.410667 376.448a32 32 0 0 0 32 32H981.333333a32 32 0 0 0 0-64h-98.922666a32 32 0 0 0-32 32z"  horiz-adv-x="1024" />
      
      <glyph glyph-name="dianpu" unicode="&#58910;" d="M0 896h1024v-1024H0zM821.909333 810.666667c12.842667 0 22.485333-6.4 28.906667-16l105.962667-204.8c2.645333-5.226667 3.114667-19.050667 3.2-25.642667L960 477.866667c0-80-67.434667-147.2-147.733333-147.2h-41.749334c-48.170667 0-86.698667 16-112.405333 41.6-25.685333-28.8-70.634667-44.8-125.226667-44.8h-41.749333c-54.613333 0-99.562667 16-125.248 44.8-25.706667-28.8-64.234667-44.8-112.426667-44.8H211.754667C131.413333 327.466667 64 394.666667 64 474.666667v81.28c0.042667 4.842667 0.32 17.706667 3.2 24.32l83.52 208c3.2 12.8 16.042667 22.4 28.885333 22.4h642.304z m-18.325333-64H202.944l-74.773333-186.24-0.106667-1.706667-0.064-2.773333v-81.28c0-44.586667 38.741333-83.2 83.733333-83.2h41.749334c30.144 0 51.413333 8.554667 64.64 23.402666l47.765333 53.546667 47.744-53.546667c12.117333-13.589333 39.616-23.402667 77.504-23.402666h41.749333c37.866667 0 65.365333 9.813333 77.482667 23.402666l45.013333 50.474667 47.914667-47.744c14.293333-14.229333 37.12-22.933333 67.221333-22.933333h41.749334c45.013333 0 83.733333 38.613333 83.733333 83.2v83.2l-0.021333 3.477333-0.170667 3.904L803.584 746.666667zM867.818667 295.36a32 32 0 0 0 32-32V64a96 96 0 0 0-96-96H221.141333a96 96 0 0 0-96 96v199.36a32 32 0 0 0 64 0V64a32 32 0 0 1 32-32h582.677334a32 32 0 0 1 32 32v199.36a32 32 0 0 0 32 32zM910.506667 608v-64H83.52v64z"  horiz-adv-x="1024" />
      
      <glyph glyph-name="dingwei" unicode="&#58911;" d="M20.48 855.04h983.04v-983.04H20.48zM712.0896 169.90208a30.72 30.72 0 0 0 39.79264 17.42848c73.48224-28.672 118.51776-70.28736 118.51776-121.91744 0-97.75104-166.2976-162.69312-368.64-162.69312s-368.64 64.94208-368.64 162.69312c0 51.63008 45.056 93.22496 118.51776 121.91744a30.72 30.72 0 0 0 22.34368-57.22112c-52.4288-20.48-79.42144-45.40416-79.42144-64.7168 0-48.0256 136.27392-101.23264 307.2-101.23264s307.2 53.20704 307.2 101.25312c0 19.29216-26.97216 44.21632-79.42144 64.69632a30.72 30.72 0 0 0-17.44896 39.79264zM279.83872 673.23904l-3.54304-3.4816-3.4816-3.54304c-116.28544-120.15616-113.13152-311.82848 7.02464-428.09344l160.82944-155.648a87.8592 87.8592 0 0 1 122.18368 0l160.82944 155.648c2.37568 2.29376 4.7104 4.64896 7.02464 7.02464 116.28544 120.15616 113.13152 311.82848-7.02464 428.09344-123.71968 119.74656-320.1024 119.74656-443.84256 0z m42.72128-44.15488c99.90144 96.68608 258.49856 96.68608 358.4 0 95.76448-92.672 98.28352-245.4528 5.59104-341.21728l-2.7648-2.82624-163.6352-158.4128a26.4192 26.4192 0 0 0-36.7616 0l-160.82944 155.648c-95.76448 92.672-98.28352 245.4528-5.59104 341.21728l5.59104 5.59104zM501.76 588.8a143.36 143.36 0 1 1 0-286.72 143.36 143.36 0 0 1 0 286.72z m0-61.44a81.92 81.92 0 1 0 0-163.84 81.92 81.92 0 0 0 0 163.84z"  horiz-adv-x="1024" />
      
      <glyph glyph-name="zaixianxuanfang" unicode="&#58885;" d="M0 896h1024v-1024H0zM475.498667 793.344a85.333333 85.333333 0 0 0 73.088 0l341.290666-161.770667A85.333333 85.333333 0 0 0 938.666667 554.474667V42.666667a85.333333 85.333333 0 0 0-85.333334-85.333334H170.666667a85.333333 85.333333 0 0 0-85.333334 85.333334V554.453333a85.333333 85.333333 0 0 0 48.789334 77.12L475.52 793.344z m45.674666-57.813333a21.333333 21.333333 0 0 1-18.261333 0L161.536 573.717333A21.333333 21.333333 0 0 1 149.333333 554.453333V42.666667a21.333333 21.333333 0 0 1 21.333334-21.333334h682.666666a21.333333 21.333333 0 0 1 21.333334 21.333334V554.453333a21.333333 21.333333 0 0 1-12.202667 19.285334L521.173333 735.509333zM597.333333 330.666667a117.333333 117.333333 0 0 0 117.333334-117.333334v-234.666666h-64V213.333333a53.333333 53.333333 0 0 1-53.333334 53.333334h-106.666666a53.333333 53.333333 0 0 1-53.333334-53.333334v-234.666666h-64V213.333333a117.333333 117.333333 0 0 0 117.333334 117.333334h106.666666z"  horiz-adv-x="1024" />
      
      <glyph glyph-name="shouye-zhihui" unicode="&#58886;" d="M0 896h1024v-1024H0zM468.906667 838.058667a68.394667 68.394667 0 0 0 86.165333 0l399.936-322.624c30.058667-24.234667 35.136-68.693333 11.328-99.328a69.269333 69.269333 0 0 0-37.802667-24.768l-3.712-0.810667 0.021334-361.514667c0-59.370667-44.48-108.48-102.528-113.877333l-4.736-0.362667-4.949334-0.106666H211.370667c-59.84 0-109.056 47.808-112.106667 109.312l-0.106667 5.034666-0.021333 361.514667-2.453333 0.490667c-29.696 6.848-52.16 33.088-53.909334 64.96L42.666667 459.989333c0 21.610667 9.685333 42.026667 26.325333 55.466667z m46.72-50.026667a5.76 5.76 0 0 1-7.253334 0L108.864 464.853333a6.058667 6.058667 0 0 1-2.218667-4.693333c0-3.328 2.624-6.016 5.866667-6.016h18.816c17.536 0.021333 31.744-14.506667 31.744-32.405333v-392.533334l0.064-3.392C164.437333-0.533333 185.792-21.333333 211.712-21.333333h599.765333l3.328 0.085333c25.770667 1.322667 46.101333 23.146667 46.101334 49.621333V421.717333c0 17.92 14.208 32.426667 31.744 32.426667h18.816c1.792 0 3.477333 0.832 4.608 2.261333a6.101333 6.101333 0 0 1-0.96 8.426667z m138.133333-564.693333a32 32 0 0 0-3.754667-45.098667C610.858667 145.109333 568.106667 128 522.666667 128c-45.44 0-88.192 17.109333-127.36 50.24a32 32 0 1 0 41.386666 48.853333C464.704 203.349333 493.056 192 522.666667 192c29.589333 0 57.941333 11.349333 85.973333 35.093333a32 32 0 0 0 45.12-3.754666z"  horiz-adv-x="1024" />
      
      <glyph glyph-name="yanziwancheng" unicode="&#58887;" d="M0 896h1024v-1024H0zM512 821.333333C259.242667 821.333333 53.333333 626.112 53.333333 384l0.106667-9.685333c2.005333-87.146667 30.826667-170.666667 83.029333-241.493334l4.650667-6.165333-28.010667-97.578667c-9.813333-34.133333 9.941333-69.76 44.074667-79.573333l4.757333-0.682667c20.778667-2.986667 22.250667-2.389333 44.544 6.464l82.56 46.464-4.437333 2.346667C353.749333-33.6 431.658667-53.333333 512-53.333333c252.757333 0 458.666667 195.221333 458.666667 437.333333S764.757333 821.333333 512 821.333333z m0-64c218.602667 0 394.666667-167.786667 394.666667-373.333333S730.602667 10.666667 512 10.666667c-70.122667 0-137.429333 17.28-196.736 49.621333l-26.752 14.592-113.408-63.829333a0.32 0.32 0 0 0-0.490667 0.384l36.970667 128.746666-18.218667 23.509334-5.397333 7.125333C142.208 232.896 117.333333 306.645333 117.333333 384c0 205.546667 176.064 373.333333 394.666667 373.333333zM694.314667 476.928a32 32 0 0 0 43.221333-47.210667l-196.736-180.096a117.333333 117.333333 0 0 0-161.344 2.730667l-83.093333 81.429333a32 32 0 1 0 44.8 45.717334l83.093333-81.429334a53.333333 53.333333 0 0 1 73.344-1.237333l196.714667 180.096z"  horiz-adv-x="1024" />
      
      <glyph glyph-name="shangchuantupian" unicode="&#58888;" d="M0 896h1024v-1024H0zM576-32H192c-52.992 0-96 43.093333-96 96V704c0 52.992 43.093333 96 96 96h640c52.992 0 96-43.093333 96-96v-384.064c0-17.706667-14.293333-32-32-32s-32 14.293333-32 32V703.978667c0 17.706667-14.4 32-32 32H192c-17.706667 0-32-14.378667-32-32v-639.957334c0-17.706667 14.4-32 32-32h384c17.706667 0 32-14.314667 32-32 0-17.706667-14.293333-32.021333-32-32.021333zM128 202.688a32.064 32.064 0 0 0-22.613333 54.698667l159.402666 159.338666a95.786667 95.786667 0 0 0 110.72 17.984l173.589334-86.805333c12.309333-6.186667 27.093333-3.797333 36.8 5.994667l287.402666 287.445333a32.042667 32.042667 0 0 0 45.290667-45.312L631.210667 308.608a95.786667 95.786667 0 0 0-110.72-18.005333l-173.589334 86.826666a31.616 31.616 0 0 1-36.8-6.016l-159.509333-159.317333c-6.186667-6.314667-14.4-9.386667-22.592-9.386667z m320 277.376c-52.906667 0-96 43.093333-96 96s43.093333 96.021333 96 96.021333 96-43.093333 96-96-43.093333-96.021333-96-96.021333z m0 128c-17.6 0-32-14.378667-32-32 0-17.6 14.4-32 32-32s32 14.4 32 32c0 17.621333-14.4 32-32 32zM768-32c-17.706667 0-32 14.293333-32 32v192.021333c0 17.706667 14.293333 32 32 32s32-14.293333 32-32v-192c0-17.706667-14.293333-32.021333-32-32.021333z m128 128c-7.893333 0-15.701333 2.922667-21.909333 8.725333L768 204.330667l-106.090667-99.712a31.936 31.936 0 0 0-45.226666 1.408 31.957333 31.957333 0 0 0 1.408 45.205333l112.213333 105.386667A48.554667 48.554667 0 0 0 768 274.56c14.72 0 28.501333-6.613333 37.696-17.92l112.213333-105.386667A31.957333 31.957333 0 0 0 896 96z"  horiz-adv-x="1024" />
      
      <glyph glyph-name="zaixianyanzi" unicode="&#58889;" d="M0 896h1024v-1024H0zM755.818667 640H268.16A76.096 76.096 0 0 1 192 563.989333v-558.293333l0.085333-3.690667c3.114667-59.690667 80.810667-83.2 116.16-33.28l14.037334 19.861334 54.144-40.042667 3.626666-2.496a64 64 0 0 1 72.469334 2.496L512-7.466667l59.477333-43.989333 3.626667-2.496a64 64 0 0 1 72.469333 2.496l54.122667 40.042667 14.08-19.84C751.808-82.218667 832-56.704 832 5.696V563.989333A76.096 76.096 0 0 1 755.818667 640z m0-64c6.72 0 12.181333-5.376 12.181333-12.010667v-558.293333l-31.701333 44.8c-17.322667 12.8-41.173333 12.8-58.517334 0L609.514667 0l-68.266667 50.474667c-17.322667 12.821333-41.173333 12.821333-58.496 0L414.485333 0l-68.266666 50.474667c-17.344 12.821333-41.173333 12.821333-58.517334 0L256 5.717333V563.989333c0 6.613333 5.461333 12.010667 12.181333 12.010667H755.84zM617.386667 430.250667a32 32 0 0 0 0-64H362.944a32 32 0 0 0 0 64h254.485333zM363.648 302.229333l159.744-3.562666a32 32 0 1 0-1.450667-64l-159.722666 3.584a32 32 0 0 0 1.429333 64zM853.333333 803.178667a117.333333 117.333333 0 0 0 117.333334-117.333334v-269.141333a85.568 85.568 0 0 0-85.568-85.546667h-53.568v64h53.546666c11.946667 0 21.589333 9.642667 21.589334 21.546667V685.866667a53.333333 53.333333 0 0 1-53.333334 53.333333H170.666667a53.333333 53.333333 0 0 1-53.333334-53.333333v-257.216c0-18.496 14.997333-33.493333 33.493334-33.493334h65.493333v-64H150.826667a97.493333 97.493333 0 0 0-97.493334 97.493334V685.845333a117.333333 117.333333 0 0 0 117.333334 117.333334h682.666666z"  horiz-adv-x="1024" />
      
      <glyph glyph-name="guanzhu-zhihui" unicode="&#58890;" d="M0 896h1024v-1024H0zM518.4 746.709333c112.597333 80.789333 267.882667 69.397333 368.128-32 53.866667-54.528 84.138667-128.853333 84.138667-206.378666 0-77.525333-30.293333-151.850667-84.096-206.336l-294.421334-299.52a110.976 110.976 0 0 0-80.213333-34.474667 110.72 110.72 0 0 0-79.914667 34.176L137.322667 302.229333C83.562667 356.757333 53.333333 431.018667 53.333333 508.458667s30.229333 151.722667 84.010667 206.272c101.973333 103.146667 260.992 113.152 374.016 27.626666l0.554667-0.426666z m322.602667-76.970666c-84.629333 85.589333-219.157333 88.64-307.328 6.954666l-21.76-20.138666-21.717334 20.138666c-88.192 81.685333-222.72 78.634667-307.306666-6.933333-41.92-42.496-65.557333-100.608-65.557334-161.28 0-60.693333 23.637333-118.805333 65.6-161.344l295.04-300.416c9.045333-9.450667 21.269333-14.72 33.962667-14.72 12.693333 0 24.917333 5.269333 34.261333 15.04L840.96 346.922667c42.005333 42.496 65.685333 100.650667 65.685333 161.408 0 60.736-23.68 118.912-65.664 161.408z m-192.874667-15.509334c52.416-0.96 95.296-16.981333 126.826667-48.512 31.552-31.573333 47.509333-74.410667 48.32-126.72a32 32 0 1 0-64-1.002666c-0.554667 36.586667-10.56 63.466667-29.568 82.453333-19.029333 19.029333-46.016 29.12-82.773334 29.802667a32 32 0 0 0 1.194667 63.978666z"  horiz-adv-x="1024" />
      
      <glyph glyph-name="guanbi" unicode="&#58891;" d="M0 896h1024v-1024H0zM240.448 728l2.346667-2.154667 289.92-289.941333 279.253333 279.253333a42.666667 42.666667 0 0 0 62.506667-58.026666l-2.133334-2.346667-279.296-279.210667 279.274667-279.253333a42.666667 42.666667 0 0 0-58.005333-62.528l-2.346667 2.176-279.253333 279.253333-289.92-289.962666a42.666667 42.666667 0 0 0-62.506667 58.005333l2.154667 2.346667 289.941333 289.962666-289.92 289.92a42.666667 42.666667 0 0 0 57.984 62.506667z"  horiz-adv-x="1024" />
      
    </font>
</defs>
</svg>
